Source: Broken.Arrow.1996.720p.BluRay.DTS.x264-CDDHD Thanks!

Subs: Arabic, Croatian, Danish, Dutch, English, Finnish, Indonesian, Norwegian, Romanian, Slovenian, Spanish and Swedish.

Sample and Screens included.

General
Complete name                            : Broken Arrow-720p MP4 AAC x264 BRRip 1996-CC.mp4
Format                                   : MPEG-4
Format profile                           : Base Media
Codec ID                                 : isom
File size                                : 2.95 GiB
Duration                                 : 1h 48mn
Overall bit rate mode                    : Variable
Overall bit rate                         : 3 895 Kbps
Encoded date                             : UTC 2013-01-12 12:35:38

Video
ID                                       : 1
Format                                   : AVC
Format/Info                              : Advanced Video Codec
Format profile                           : High@L4.1
Format settings, CABAC                   : Yes
Format settings, ReFrames                : 5 frames
Codec ID                                 : avc1
Codec ID/Info                            : Advanced Video Coding
Duration                                 : 1h 48mn
Bit rate                                 : 3 573 Kbps
Maximum bit rate                         : 19.8 Mbps
Width                                    : 1 280 pixels
Height                                   : 544 pixels
Display aspect ratio                     : 2.35:1
Frame rate mode                          : Variable
Frame rate                               : 23.976 fps
Minimum frame rate                       : 19.048 fps
Maximum frame rate                       : 24.390 fps
Color space                              : YUV
Chroma subsampling                       : 4:2:0
Bit depth                                : 8 bits
Scan type                                : Progressive
Bits/(Pixel*Frame)                       : 0.214
Stream size                              : 2.65 GiB (90%)
Writing library                          : x264 core 112

Audio
ID                                       : 2
Format                                   : AAC
Format/Info                              : Advanced Audio Codec
Format profile                           : LC
Codec ID                                 : 40
Duration                                 : 1h 48mn
Bit rate mode                            : Variable
Bit rate                                 : 384 Kbps
Maximum bit rate                         : 629 Kbps
Channel(s)                               : 6 channels
Channel positions                        : Front: L C R, Side: L R, LFE
Sampling rate                            : 48.0 KHz
Compression mode                         : Lossy
Delay relative to video                  : 83ms
Stream size                              : 298 MiB (10%)
Language                                 : English

Enjoy...

Requested by majmi

Coming soon: Apocalypse Hitler, Twilight Samurai, The Big Heat, Frequency, Superman Returns and more..